<svg width="29" height="30" viewBox="0 0 29 30" fill="none" xmlns="http://www.w3.org/2000/svg">
<path d="M17.1568 14.5234L28.4489 3.23099C29.1837 2.49647 29.1837 1.30885 28.4489 0.574329C27.7144 -0.160193 26.5267 -0.160193 25.7922 0.574329L14.4998 11.8667L3.20781 0.574329C2.47295 -0.160193 1.28567 -0.160193 0.551149 0.574329C-0.183717 1.30885 -0.183717 2.49647 0.551149 3.23099L11.8432 14.5234L0.551149 25.8157C-0.183717 26.5502 -0.183717 27.7379 0.551149 28.4724C0.917206 28.8388 1.39852 29.0229 1.87948 29.0229C2.36045 29.0229 2.84141 28.8388 3.20781 28.4724L14.4998 17.18L25.7922 28.4724C26.1586 28.8388 26.6396 29.0229 27.1205 29.0229C27.6015 29.0229 28.0825 28.8388 28.4489 28.4724C29.1837 27.7379 29.1837 26.5502 28.4489 25.8157L17.1568 14.5234Z" fill="black"/>
</svg>
