<svg width="162" height="37" viewBox="0 0 162 37" fill="none" xmlns="http://www.w3.org/2000/svg">
<path fill-rule="evenodd" clip-rule="evenodd" d="M154.373 2.70642L161.139 2.7436C161.139 2.7436 148.56 19.7887 147.533 21.1779C147.199 21.6277 146.692 22.1129 146.435 22.7142C145.786 24.2261 145.119 27.5423 145.119 27.5423L138.928 27.573C138.928 27.573 139.891 24.1164 139.851 22.2752C139.816 20.6667 138.995 19.0603 138.535 17.4472C138.069 15.8145 137.437 12.6191 137.437 12.6191H143.802L144.68 16.1305L154.373 2.70642Z" fill="#1A1918"/>
<path fill-rule="evenodd" clip-rule="evenodd" d="M141.561 6.30113C142.81 7.05397 143.576 11.206 143.576 11.206C143.576 11.206 137.043 11.3024 133.487 11.3024H130.415L126.684 27.5423H120.978C120.978 27.5423 124.529 9.89368 125.368 6.69397C125.64 5.65827 127.229 5.8358 129.912 5.8358H134.198C136.966 5.8358 140.201 5.48261 141.561 6.30113Z" fill="#1A1918"/>
<path fill-rule="evenodd" clip-rule="evenodd" d="M114.998 14.2105C114.998 14.2105 115.176 13.168 114.395 11.961C113.728 10.9318 113.111 10.6926 111.356 10.6378C106.398 10.482 106.494 14.1557 106.494 14.1557L114.998 14.2105ZM120.375 10.0036C121.102 12.624 119.717 18.7818 119.717 18.7818C119.717 18.7818 112.485 18.661 108.525 18.7818C107.293 18.8193 105.819 18.6479 105.452 19.2208C104.936 20.0238 105.641 21.2596 106.238 21.7817C106.925 22.383 108.263 22.4512 108.744 22.5125C111.959 22.9208 118.688 22.6178 118.688 22.6178L117.522 27.7793C117.522 27.7793 108.013 28.2558 103.257 27.1209C102.318 26.8972 101.438 26.4452 100.843 25.8042C100.681 25.6289 100.54 25.3897 100.387 25.1834C100.264 25.0186 99.9066 24.4767 99.7461 24.0485C98.6599 21.154 99.8734 15.6084 101.063 12.637C101.201 12.2925 101.374 11.856 101.557 11.4848C101.785 11.022 101.978 10.4996 102.16 10.223C102.283 10.0321 102.435 9.90914 102.562 9.72914C102.709 9.5163 102.88 9.30997 103.038 9.12594C103.477 8.61661 103.975 8.25662 104.574 7.80925C106.556 6.32557 110.142 5.17339 114.45 5.61456C116.072 5.78124 118.521 6.36058 119.717 8.0286C120.037 8.4741 120.195 9.3583 120.375 10.0036Z" fill="#1A1918"/>
<path fill-rule="evenodd" clip-rule="evenodd" d="M94.2048 5.81604L99.7373 5.7832C99.7373 5.7832 96.6541 20.4099 95.0828 27.5424H88.7183C84.2701 27.5424 80.3089 28.0932 78.6235 24.9087C76.9886 21.8168 78.5488 16.7319 79.2818 13.2775C79.7998 10.8328 80.8907 5.83587 80.8907 5.83587L86.6228 5.7832C86.6228 5.7832 85.0031 13.5628 84.3293 17.4472C84.0879 18.8386 83.5901 20.1488 84.1099 21.178C84.6037 22.157 85.2949 22.227 87.4016 22.2753C88.069 22.2908 90.2547 22.2753 90.2547 22.2753L94.2048 5.81604Z" fill="#1A1918"/>
<path fill-rule="evenodd" clip-rule="evenodd" d="M68.3091 16.3499C68.8884 14.2915 69.7332 12.0596 69.6257 10.2051C69.5096 8.22139 67.8462 6.4152 66.773 6.03568C63.5405 4.89434 60.5142 6.48986 59.3116 7.79106C57.7554 9.47674 57.2287 11.4453 56.6779 14.1555C56.2677 16.1677 55.9318 18.2921 56.6779 19.8612C57.9989 22.6353 62.1181 22.0296 66.5534 22.0559C67.2117 20.2916 67.756 18.3097 68.3091 16.3499ZM75.9902 8.23006C76.6222 12.8255 74.1973 17.8974 72.5271 22.3081C74.2301 22.4618 75.7225 22.2843 75.83 22.4113C75.9418 22.5761 74.6887 27.6762 74.2518 27.6892C72.9001 27.7245 68.4212 27.7617 66.5534 27.7617C60.4591 27.7617 54.7577 28.1589 51.8501 25.1283C50.6694 23.8971 49.8531 21.7858 49.6554 20.3002C49.3261 17.8202 49.7388 15.0902 50.3138 12.8388C50.8339 10.8064 51.501 8.88841 52.5085 7.13272C55.0693 2.66247 59.5244 -0.655588 66.9924 0.110262C68.4407 0.25959 70.5211 0.89377 71.8204 1.6463C71.9103 1.69928 72.2244 1.94929 72.2966 1.99328C74.0523 3.11046 75.6522 5.77668 75.9902 8.23006Z" fill="#1A1918"/>
<path fill-rule="evenodd" clip-rule="evenodd" d="M49.0256 5.8425C48.6569 7.52135 48.2882 9.42421 47.8997 11.0832H41.755C42.2312 9.24421 42.5955 7.41602 43.0717 5.81616C45.038 5.81616 46.8662 5.8425 49.0256 5.8425Z" fill="#1A1918"/>
<path fill-rule="evenodd" clip-rule="evenodd" d="M41.5356 12.6193H47.4607C46.6862 16.9076 45.1523 23.8248 43.9496 28.6395C43.1968 31.6527 42.6943 33.8518 40.6576 35.4426C40.4754 35.5855 40.3704 35.5176 40.2189 35.6623C39.8434 36.0201 38.1075 36.4349 37.1465 36.54C35.5838 36.7091 33.8173 36.562 31.8971 36.5226C32.3996 34.6858 32.9681 32.4802 33.4158 30.8342C38.0967 31.4005 38.2154 26.9762 39.1215 22.7144C39.6461 20.252 41.2351 13.6069 41.5356 12.6193Z" fill="#1A1918"/>
<path fill-rule="evenodd" clip-rule="evenodd" d="M27.7097 23.8118L27.5827 24.1409C25.4187 28.3543 21.5848 30.9396 16.116 31.0536C13.5595 31.1063 11.1235 30.4504 9.53227 29.737C6.09803 28.1941 3.20967 25.3327 1.63212 22.2755C-0.630726 17.8929 -1.03875 11.7965 3.66633 7.24292C3.73883 7.24292 3.09566 8.23028 3.16816 8.23028L3.03866 8.65162C-0.351897 19.2666 10.094 28.3633 20.2483 27.3229C22.6886 27.0729 25.8007 25.7364 27.7097 23.8118Z" fill="#21609B"/>
<path fill-rule="evenodd" clip-rule="evenodd" d="M21.565 19.4224C24.1196 19.4401 26.788 18.2461 28.3681 16.5697C26.9857 20.0789 22.983 22.3347 17.6149 21.6171C13.1205 21.0158 8.8389 16.4929 8.39774 11.961C8.07522 8.66275 9.22493 6.69422 11.1191 4.30652C10.4608 5.55536 10.2148 6.51856 10.1534 7.13291C9.43374 14.2675 15.8527 19.3853 21.565 19.4224Z" fill="#21609B"/>
<path fill-rule="evenodd" clip-rule="evenodd" d="M28.1116 10.5609C27.7144 11.4717 25.4277 13.1921 24.418 13.4071C20.4196 14.2587 17.8587 12.3627 16.5176 10.2052C16.318 9.88268 15.9494 9.00282 15.8834 8.77883C15.3632 7.01013 15.6024 4.33492 17.1542 2.95007C16.6867 4.26676 16.6186 5.79629 16.8645 6.79047C17.0136 7.39181 17.4677 8.44114 17.9222 9.10134C18.7494 10.304 19.2739 10.5962 20.3363 11.2347C20.8146 11.5222 21.328 11.7527 21.5498 11.8162C22.557 12.1124 24.6835 12.8937 28.1116 10.5609Z" fill="#21609B"/>
</svg>
