<svg width="172" height="57" fill="none" xmlns="http://www.w3.org/2000/svg"><path d="M32.252 25.96l.127 5.568c-.597.17-1.023.256-1.28.256l-.768-.128-.703-4.16c-1.537-.384-4.203-.576-8-.576-3.755 0-6.23.107-7.425.32v7.424c0 4.395.171 8.384.513 11.968 1.962.256 4.629.384 8 .384.17.427.255.853.255 1.28 0 .384-.085.683-.256.896L11.643 49c-3.242 0-6.208.17-8.896.512-.213-.256-.32-.619-.32-1.088l.064-.512c2.22-.512 3.67-1.301 4.353-2.368.554-.853.917-1.92 1.087-3.2.513-3.883.769-8.747.769-14.592 0-14.848-.384-22.421-1.152-22.72-.811-.213-2.22-.32-4.224-.32a3.734 3.734 0 01-.128-1.024c0-.384.042-.704.127-.96l9.729.192h8.192l15.103-.448c.768 0 1.152.235 1.152.704 0 .043-.064.555-.192 1.536a97.41 97.41 0 00-.96 8.896c-.511.256-.98.384-1.407.384-.384 0-.726-.085-1.024-.256-.47-3.541-.875-5.952-1.216-7.232-3.883-.896-7.467-1.344-10.753-1.344-3.242 0-5.567.085-6.975.256-.512 1.963-.768 8.277-.768 18.944 1.023.17 2.837.256 5.44.256 2.602 0 4.714-.085 6.336-.256 1.62-.17 2.773-.512 3.456-1.024.725-.555 1.215-1.643 1.471-3.264.811 0 1.473.15 1.985.448-.427 2.432-.64 4.245-.64 5.44z" fill="#47EC0D"/><path d="M32.252 25.96h-1v.023l1-.023zm.127 5.568l.275.962.743-.213-.018-.772-1 .023zm-1.28.256l-.164.986.082.014h.082v-1zm-.768-.128l-.985.167.118.702.703.117.164-.986zm-.703-4.16l.985-.167-.109-.645-.634-.158-.242.97zm-15.425-.256l-.175-.984-.825.147v.837h1zm.513 19.392l-.996.095.076.794.79.103.13-.992zm8 .384l.928-.371-.252-.629h-.677v1zm0 2.176l-.018 1 .491.008.307-.383-.78-.625zM11.642 49l.018-1h-.017v1zm-8.896.512l-.768.64.351.421.543-.069-.126-.992zm-.32-1.088l-.992-.124-.008.062v.062h1zm.064-.512l-.224-.974-.681.157-.087.693.992.124zm4.353-2.368l-.839-.545-.004.006.842.539zm1.087-3.2l.992.132v-.001l-.992-.131zM7.548 5.032L7.91 4.1l-.053-.02-.055-.015-.254.967zm-4.224-.32l-.962.275.207.725h.755v-1zm0-1.984l.02-1-.736-.014-.233.698.949.316zm9.728.192l-.02 1h.02v-1zm8.192 0v1h.029l-.03-1zm15.103-.448v-1h-.029l.03 1zm.96 2.24l.989.151.002-.01.001-.012-.992-.129zm-.96 8.896l.448.894.516-.258.035-.576-.998-.06zm-2.431.128l-.992.131.065.491.43.246.497-.868zM32.7 6.504l.966-.258-.155-.581-.587-.135-.224.974zM14.97 5.416l-.12-.993-.675.082-.172.659.968.252zm-.768 18.944h-1v.847l.836.14.165-.987zm11.777 0l.104.995-.104-.995zm3.456-1.024l.6.8.007-.006-.607-.794zm1.471-3.264v-1h-.854l-.133.844.987.156zm1.985.448l.984.173.12-.686-.6-.35-.505.863zm-1.64 5.463l.128 5.568 2-.046-.129-5.568-2 .046zm.853 4.584c-.6.17-.904.217-1.005.217v2c.41 0 .959-.124 1.554-.294l-.55-1.924zm-.841.23l-.768-.127-.329 1.972.768.128.329-1.972zm.053.692l-.704-4.16-1.971.334.704 4.16 1.971-.334zm-1.447-4.963c-1.668-.417-4.445-.606-8.242-.606v2c3.797 0 6.353.195 7.757.546l.485-1.94zm-8.242-.606c-3.738 0-6.303.104-7.6.336l.351 1.968c1.093-.195 3.477-.304 7.249-.304v-2zm-8.425 1.32v7.424h2V27.24h-2zm0 7.424c0 4.42.172 8.441.517 12.063l1.991-.19c-.338-3.546-.508-7.503-.508-11.873h-2zm1.383 12.96c2.025.264 4.741.392 8.13.392v-2c-3.353 0-5.97-.128-7.871-.376l-.259 1.984zm7.201-.237c.127.318.184.62.184.909h2c0-.563-.113-1.116-.327-1.651l-1.857.742zm.184.909c0 .247-.055.295-.036.271l1.561 1.25c.36-.45.476-1 .476-1.521h-2zm.762-.104L11.66 48l-.035 2 11.072.192.035-2zM11.643 48c-3.276 0-6.285.172-9.021.52l.251 1.984c2.64-.335 5.562-.504 8.77-.504v-2zm-8.127.872c-.013-.015-.088-.118-.088-.448h-2c0 .609.137 1.231.551 1.728l1.537-1.28zm-.096-.324l.064-.512-1.985-.248-.064.512 1.985.248zm-.704.338c2.289-.528 4.07-1.396 4.97-2.803L6 45.005c-.465.726-1.585 1.437-3.734 1.933l.45 1.948zm4.966-2.797c.654-1.007 1.056-2.224 1.24-3.613l-1.982-.264c-.156 1.17-.48 2.087-.935 2.787l1.677 1.09zm1.24-3.614c.52-3.942.777-8.853.777-14.723h-2c0 5.82-.255 10.637-.759 14.461l1.983.262zM9.7 27.752c0-7.428-.095-13.054-.289-16.867-.096-1.902-.218-3.378-.369-4.41a8.55 8.55 0 00-.27-1.293 2.5 2.5 0 00-.225-.52A1.3 1.3 0 007.91 4.1l-.725 1.864a.796.796 0 01-.278-.18.534.534 0 01-.079-.099c-.01-.017.006.006.036.103.06.188.129.504.198.977.137.936.255 2.337.35 4.222.191 3.76.287 9.345.287 16.765h2zM7.803 4.065c-.949-.25-2.473-.353-4.478-.353v2c2.005 0 3.296.11 3.969.287l.509-1.934zm-3.517.372a2.746 2.746 0 01-.09-.749h-2c0 .456.05.893.167 1.299l1.923-.55zm-.09-.749c0-.318.037-.523.077-.644l-1.897-.632c-.13.39-.18.826-.18 1.276h2zm-.891.04l9.728.192.04-2-9.729-.192-.04 2zm9.748.192h8.192v-2h-8.192v2zm8.192-1l.03 1h.014a.381.381 0 01.004-.001h.002a.177.177 0 00.005 0h.01a.904.904 0 01.006 0h.007l.003-.001h.031l.005-.001h.028l.005-.001h.028l.006-.001h.025l.006-.001h.027l.008-.001h.029l.008-.001h.024l.008-.001h.025l.008-.001h.027l.009-.001h.019a2.272 2.272 0 01.018-.001h.02l.01-.001h.02l.01-.001h.03l.011-.001h.022l.011-.001h.011a14.209 14.209 0 01.023-.001h.023l.012-.001h.023l.012-.001h.012l.013-.001h.025l.012-.001h.026l.013-.001h.013l.013-.001h.027l.013-.001h.014l.014-.001h.028l.014-.001h.014a23.237 23.237 0 01.029-.002h.044l.015-.001h.015l.015-.001h.015l.016-.001h.015l.016-.001h.016l.015-.001h.032l.017-.001h.016l.016-.001h.017l.017-.001h.016l.017-.001a32.154 32.154 0 01.034-.001h.018l.017-.001h.017l.018-.001.018-.001h.017l.018-.001h.018l.018-.001h.019l.018-.001h.019l.018-.001h.019l.019-.001.019-.001h.019l.019-.001h.02l.019-.001h.02l.019-.001.02-.001h.02l.02-.001h.02l.02-.001.02-.001h.02l.021-.001h.02l.022-.001.02-.001h.022l.02-.001h.022l.021-.002h.044l.021-.001.022-.001h.022l.022-.001.022-.001h.023l.022-.001.023-.001h.022l.023-.001.023-.001h.023l.023-.001.023-.001a61.188 61.188 0 01.07-.002l.024-.001h.024l.024-.001.024-.001h.024l.024-.002h.025l.024-.001h.025l.024-.001.025-.001h.025a20.86 20.86 0 00.05-.002l.026-.001h.025a31.11 31.11 0 00.051-.002l.026-.001.026-.001h.026l.026-.002h.026l.027-.001h.026l.027-.002h.026l.027-.001.027-.001h.027l.027-.002h.027l.028-.001.027-.001h.028l.028-.002h.027a26.168 26.168 0 00.056-.002l.029-.001h.028l.028-.002h.029l.029-.001.028-.001.03-.001.028-.001h.03l.028-.002h.03l.03-.001.029-.001.03-.001.03-.001.03-.001h.03l.03-.002h.03l.03-.002h.03l.03-.001.032-.001.03-.001a32.076 32.076 0 00.094-.003h.03l.032-.002h.032l.031-.002h.032l.032-.002h.032l.032-.001.032-.001.033-.001.032-.001.033-.001.032-.001.033-.001.033-.001.033-.001.033-.001.033-.001.034-.001.033-.001.034-.001.034-.001.033-.001a38.584 38.584 0 00.068-.002l.034-.001.035-.001.034-.001.035-.001.034-.001.035-.001.035-.001.035-.001.035-.001.035-.001.035-.002h.036l.035-.002h.036l.036-.002h.036l.036-.002h.036l.036-.002.037-.001.036-.001.037-.001.036-.001.037-.001.037-.002h.037l.037-.002a35.861 35.861 0 01.075-.002l.037-.001.038-.001.038-.001.038-.001.038-.002h.038l.038-.002.038-.001.039-.001.038-.001.039-.001.039-.002h.039l.039-.002.039-.001.039-.001.04-.001.039-.002h.04l.039-.002.04-.001a75.749 75.749 0 00.12-.004h.04l.04-.002.041-.001.04-.001.041-.002h.041l.041-.002.041-.001.042-.001.04-.002h.042l.042-.002.041-.001.042-.002h.042l.042-.002.042-.001.043-.002h.042a203.35 203.35 0 01.085-.003l.043-.002h.042l.043-.002.043-.001.044-.002.043-.001.043-.001.044-.002h.043l.044-.002.044-.002h.044l.044-.002.044-.001.045-.002.044-.001.044-.001.045-.002a66.691 66.691 0 00.09-.002l.045-.002a67.89 67.89 0 01.09-.002l.045-.002.046-.001.045-.001.046-.002.046-.001.046-.002h.046l.046-.002.046-.002.047-.001.046-.001.047-.002.046-.001.047-.002h.047l.047-.002.048-.002a250.507 250.507 0 01.094-.003h.048l.047-.002.048-.002.048-.001.048-.002.048-.001.049-.001.048-.002.048-.001.049-.002.049-.001.048-.002.05-.001.048-.002.05-.001.049-.002.05-.001.049-.001.05-.002.049-.001.05-.002.05-.001.05-.002.05-.001.05-.002.05-.001.051-.002.05-.001.052-.002.05-.001.051-.002.052-.001.05-.002.052-.001.052-.002.051-.001.052-.002.052-.002.051-.001.053-.002.052-.001.052-.002.052-.001.053-.002.052-.001.053-.002.053-.001.053-.002.053-.002.053-.001.053-.002.054-.001.053-.002.054-.002.054-.001.054-.002.054-.001.054-.002a139.484 139.484 0 00.108-.003l.055-.002.054-.001.055-.002.055-.002.055-.001.055-.002.055-.002.055-.001.055-.002.056-.001.056-.002.055-.002.056-.001.056-.002.056-.002.056-.001.057-.002.056-.002.057-.001.056-.002.057-.002c.019 0 .038 0 .057-.002l.057-.001.057-.002.057-.002.057-.001.058-.002.057-.002.058-.001.058-.002.058-.002.058-.002.058-.001.058-.002.059-.002.058-.001.059-.002.058-.002.06-.002.058-.001-.06-2a393.96 393.96 0 00-.117.004l-.059.002-.058.001-.059.002-.058.002-.058.002-.059.001-.057.002-.058.002-.058.001-.058.002-.057.002-.058.002-.057.001-.057.002-.058.002a108.443 108.443 0 01-.227.006l-.056.002-.057.002-.056.001-.056.002-.056.002-.056.001-.056.002-.056.002-.055.001-.056.002-.055.002-.055.001-.055.002-.056.002-.054.001-.055.002-.055.001-.054.002-.055.002a98.413 98.413 0 01-.108.003l-.055.002-.054.001-.053.002-.054.001-.054.002-.053.002-.054.001-.053.002-.053.001-.053.002-.053.001-.053.002-.053.002a311.375 311.375 0 01-.105.003l-.052.001-.053.002-.052.001-.052.002-.052.001-.051.002-.052.001-.052.002-.051.001-.051.002-.052.002-.05.001-.052.002-.05.001-.052.002-.05.001-.05.002-.051.001-.05.002-.05.001-.05.002-.05.001-.05.001-.05.002-.05.001-.05.002-.049.001-.049.002-.049.001-.049.002-.049.001-.049.002-.048.001-.049.002-.048.001-.049.001-.048.002-.048.001-.048.002-.048.001-.048.002h-.047l-.048.002-.047.002-.048.001-.047.002-.047.001-.047.001a249.506 249.506 0 00-.093.003l-.047.002h-.047l-.046.002-.046.002-.046.001-.046.001-.046.002-.046.001-.046.001-.045.002a232.89 232.89 0 00-.091.002l-.046.002-.045.001-.045.002h-.044l-.045.002-.045.001-.044.002-.045.001a219.833 219.833 0 00-.088.003l-.044.001-.044.001-.044.002-.044.001-.044.001-.043.002h-.043l-.044.002-.043.001-.043.002h-.043l-.043.002-.042.001-.043.002-.042.001-.043.001-.042.002h-.042l-.042.002-.042.001-.042.001-.041.002-.042.001-.041.001-.042.001-.04.002h-.042l-.04.002-.042.001-.04.001-.041.002h-.04l-.041.002-.04.001-.04.001-.04.002h-.04l-.04.002-.04.001-.04.001-.039.002h-.04l-.039.002-.039.001-.039.001-.039.001-.038.002h-.04l-.038.002h-.038l-.038.002-.039.001-.038.001-.038.001-.037.002a47.44 47.44 0 00-.076.002H27.3l-.038.002-.037.001-.037.001-.037.001-.037.001-.037.002h-.037l-.036.002h-.037l-.036.002h-.036l-.036.002-.037.001-.035.001-.036.001-.036.001-.035.001-.036.001-.035.001-.035.001-.035.002h-.035l-.035.002h-.035l-.035.002h-.034l-.034.002h-.035a39.039 39.039 0 01-.068.003h-.034l-.034.002h-.034l-.033.002h-.034a125.618 125.618 0 00-.066.003h-.033l-.033.002h-.033l-.033.002h-.033l-.032.002h-.033l-.032.001-.032.001-.032.001-.032.001-.032.001-.032.001-.032.001-.031.001-.031.001h-.032l-.03.002a32.076 32.076 0 01-.063.002h-.03l-.031.002h-.031l-.03.001-.03.001-.031.001-.03.001h-.03l-.03.002h-.03l-.03.002h-.03l-.029.001-.029.001-.03.001h-.028l-.03.002h-.028l-.029.001-.029.001-.028.001-.028.001h-.029l-.028.002h-.028l-.028.001-.028.001-.027.001h-.028l-.027.002h-.028l-.027.001-.027.001h-.027l-.027.002h-.027l-.027.001-.026.001h-.027l-.026.002h-.026l-.026.001h-.026l-.026.002h-.026l-.026.001-.025.001h-.025l-.026.001-.025.001-.025.001h-.025l-.025.001-.024.001h-.025l-.025.002h-.024l-.024.001h-.024l-.024.002h-.048l-.024.002h-.023l-.024.001h-.023l-.023.001-.024.001h-.022l-.023.001-.023.001h-.023a58.373 58.373 0 00-.045.002h-.022l-.022.001-.022.001h-.022l-.022.001-.022.001a15.572 15.572 0 00-.064.002h-.021l-.022.001h-.02l-.021.001-.021.001h-.021l-.02.001h-.021l-.02.001-.02.001h-.02l-.02.001h-.02l-.02.001-.02.001h-.02l-.019.001h-.02a17.227 17.227 0 01-.038.002h-.018l-.02.001h-.018l-.019.001h-.018l-.018.001h-.019l-.018.001h-.018l-.018.001h-.018l-.017.001a10.339 10.339 0 01-.035.001l-.018.001h-.017a9.76 9.76 0 01-.034.002h-.034l-.016.001h-.017l-.016.001h-.033l-.016.001h-.016l-.016.001h-.016l-.015.001h-.016l-.015.001h-.015l-.015.001h-.015l-.015.001h-.03l-.014.001h-.015l-.014.001h-.015l-.014.001h-.027l-.014.001h-.014l-.013.001h-.027l-.013.001h-.013l-.013.001h-.026l-.013.001h-.024l-.013.001h-.012l-.012.001h-.024l-.011.001h-.023l-.012.001h-.022l-.011.001h-.021l-.012.001h-.01a12.513 12.513 0 00-.02 0l-.011.001h-.02l-.01.001h-.02l-.009.001h-.028l-.009.001h-.026l-.009.001h-.025a66905345906.03 66905345906.03 0 00-.016.001h-.016l-.007.001h-.03l-.007.001h-.02a.905.905 0 00-.014.001h-.024l-.006.001h-.028l-.005.001H21.3l-.004.001h-.03l-.004.001h-.006a1.104 1.104 0 00-.006 0h-.02l-.001.001h-.015l.03 1zm15.103.552c.145 0 .243.011.305.024.063.013.066.023.038.005a.417.417 0 01-.14-.154.378.378 0 01-.05-.171h2c0-.565-.263-1.073-.767-1.381-.424-.26-.932-.323-1.386-.323v2zm.152-.296c0-.055.006-.098.002-.062a224.02 224.02 0 01-.186 1.468l1.984.26a233.104 233.104 0 00.182-1.431c.003-.031.018-.15.018-.235h-2zm-.18 1.385a98.366 98.366 0 00-.97 8.987l1.997.12c.168-2.826.485-5.76.95-8.805l-1.977-.302zm-.419 8.153c-.418.209-.733.278-.96.278v2c.625 0 1.25-.187 1.855-.49l-.895-1.788zm-.96.278c-.231 0-.398-.05-.528-.124l-.993 1.736c.467.267.983.388 1.52.388v-2zm-.033.613c-.469-3.536-.881-6.008-1.241-7.359l-1.933.516c.323 1.209.721 3.558 1.191 7.105l1.983-.262zM32.924 5.53c-3.941-.91-7.601-1.37-10.976-1.37v2c3.195 0 6.703.436 10.527 1.318l.45-1.948zM21.948 4.16c-3.246 0-5.624.085-7.097.263l.24 1.986c1.344-.163 3.616-.249 6.857-.249v-2zm-7.944 1.004c-.288 1.104-.48 3.284-.608 6.42-.129 3.176-.193 7.437-.193 12.776h2c0-5.328.065-9.558.192-12.695.129-3.18.32-5.138.544-5.997l-1.935-.504zm.035 20.182c1.115.186 3.005.27 5.604.27v-2c-2.605 0-4.342-.087-5.275-.242l-.329 1.972zm5.604.27c2.62 0 4.77-.086 6.441-.261l-.21-1.99c-1.572.166-3.645.251-6.23.251v2zm6.441-.261c1.664-.176 3.044-.538 3.951-1.219l-1.2-1.6c-.457.343-1.382.663-2.96.83l.21 1.989zm3.959-1.225c1.04-.795 1.585-2.21 1.852-3.902l-1.975-.312c-.245 1.551-.682 2.312-1.092 2.626l1.215 1.588zm.864-3.058c.697 0 1.168.13 1.48.312l1.008-1.728c-.71-.415-1.562-.584-2.488-.584v2zm1-.725c-.429 2.442-.655 4.327-.655 5.613h2c0-1.103.2-2.845.624-5.267l-1.97-.346zm111.22 28.909l-.028 1h.028v-1zM133.655 49l.027-1h-.027v1zm-12.992.512l-.769.64.348.417.539-.064-.118-.993zm-.32-1.024l-.994-.11-.006.055v.055h1zm.064-.576l-.197-.98-.717.143-.08.727.994.11zm5.568-2.496l.826.562.008-.01.007-.011-.841-.541zm.704-1.408l.97.242.003-.012.003-.013-.976-.217zm.448-4.416l-.996-.1v.009l-.001.008.997.083zm.448-13.12l1 .007v-.007h-1zm-1.088-21.44l.332-.943-.079-.028-.084-.014-.169.985zm-4.416-.32l-.92.394.26.606h.66v-1zm0-1.984l.026-1-.636-.017-.285.57.895.447zm7.168.192l-.027 1h.027v-1zm6.144 0v1h.033l-.033-1zm7.744-.256v-1h-.034l.034 1zm18.24 6.464l-.718.696.007.008.711-.704zm-.576 33.408l-.698-.717.698.717zm-26.816-37.12l-.147-.99-.646.097-.172.63.965.263zm-.512 40.192l-.992.132.09.67.656.167.246-.969zm22.784-4.032l-.752-.66-.001.002.753.658zm-.448-29.696l.779-.627-.006-.007-.005-.006-.768.64zm-6.976-4.864l-.393.92.008.003.008.004.377-.927zm-5.669 41.24L133.682 48l-.055 2 9.472.256.055-2zM133.655 48c-5.812 0-10.191.17-13.111.52l.237 1.985c2.797-.334 7.079-.505 12.874-.505v-2zm-12.224.872c-.026-.031-.088-.124-.088-.384h-2c0 .594.15 1.183.551 1.664l1.537-1.28zm-.095-.274l.064-.576-1.987-.22-.064.576 1.987.22zm-.733.295c1.534-.307 2.824-.683 3.845-1.14 1.008-.452 1.843-1.024 2.353-1.775l-1.653-1.124c-.215.315-.671.693-1.519 1.074-.835.374-1.966.713-3.419 1.003l.393 1.962zm6.213-2.936c.395-.616.706-1.199.833-1.706l-1.941-.485c-.043.175-.202.53-.575 1.11l1.683 1.08zm.839-1.732c.058-.262.122-.791.194-1.508.076-.745.167-1.76.274-3.042l-1.993-.166a193.926 193.926 0 01-.27 3.006c-.077.755-.131 1.154-.158 1.276l1.953.434zm.467-4.534c.261-2.61.41-7.025.452-13.212l-1.999-.014c-.043 6.187-.193 10.518-.444 13.027l1.991.2zm.453-13.219v-7.424h-2v7.424h2zm0-7.424c0-4.55-.091-8.022-.275-10.397-.092-1.183-.21-2.13-.361-2.815a4.58 4.58 0 00-.291-.924c-.098-.21-.331-.647-.829-.823l-.665 1.886c-.316-.112-.38-.348-.319-.217.035.074.09.232.151.51.121.547.23 1.384.319 2.537.179 2.297.27 5.706.27 10.243h2zm-1.919-15.001c-1.309-.226-2.841-.335-4.585-.335v2c1.668 0 3.08.105 4.246.305l.339-1.97zm-3.666.271a1.585 1.585 0 01-.111-.63h-2c0 .495.082.974.272 1.418l1.839-.788zm-.111-.63c0-.28.047-.435.086-.513l-1.789-.894c-.217.434-.297.918-.297 1.407h2zm-.835.04l7.168.192.053-2-7.168-.192-.053 2zm7.195.192h6.144v-2h-6.144v2zm6.177 0l7.744-.257-.067-1.998-7.744.256.067 1.998zm7.711-.256c7.8 0 13.585 2.103 17.522 6.16l1.435-1.392c-4.425-4.561-10.801-6.768-18.957-6.768v2zm17.529 6.168c4.014 4.054 6.047 9.314 6.047 15.872h2c0-7.01-2.192-12.8-6.626-17.28l-1.421 1.408zm6.047 15.872c0 6.486-2.206 11.833-6.61 16.115l1.395 1.434c4.812-4.678 7.215-10.552 7.215-17.549h-2zm-6.61 16.115c-4.399 4.277-10.026 6.437-16.966 6.437v2c7.395 0 13.544-2.32 18.361-7.003l-1.395-1.434zM138.775 4.16c-2.067 0-3.723.086-4.947.267l.293 1.978c1.08-.16 2.624-.245 4.654-.245v-2zm-5.765.993c-.285 1.044-.481 2.634-.61 4.713-.129 2.098-.193 4.755-.193 7.966h2c0-3.19.063-5.801.19-7.842.127-2.06.315-3.477.542-4.31l-1.929-.527zm-.803 12.679v20.16h2v-20.16h-2zm0 20.16c0 3.787.083 6.392.264 7.748l1.983-.264c-.161-1.204-.247-3.676-.247-7.484h-2zm1.01 8.585c2.943.747 6.013 1.119 9.206 1.119v-2c-3.037 0-5.941-.353-8.715-1.057l-.491 1.938zm9.206 1.119c6.405 0 11.336-1.759 14.576-5.462l-1.505-1.317c-2.734 3.124-7.018 4.779-13.071 4.779v2zm14.576-5.46c3.242-3.7 4.792-8.896 4.792-15.444h-2c0 6.252-1.48 10.912-4.296 14.125l1.504 1.318zm4.792-15.444c0-6.008-1.729-11.206-5.213-15.539l-1.559 1.254c3.172 3.944 4.772 8.688 4.772 14.285h2zm-5.224-15.552c-1.831-2.197-4.301-3.906-7.368-5.15l-.753 1.853c2.821 1.144 5.001 2.678 6.584 4.577l1.537-1.28zm-7.352-5.144c-3.048-1.3-6.535-1.936-10.44-1.936v2c3.689 0 6.9.601 9.655 1.776l.785-1.84z" fill="#000"/><g clip-path="url(#clip0)" stroke="#000"><path d="M72.877 44.999h0A4.96 4.96 0 0168.14 48.5a3.916 3.916 0 01-3.916-3.916V19.431a6.258 6.258 0 016.259-6.259h1.69a6.258 6.258 0 016.258 6.259c0 4.99-.747 9.952-2.214 14.722L72.877 45zm-7.118-32.327v1.19H54.086v-1.19a2.88 2.88 0 012.88-2.879h.513l-.014-.514a12.725 12.725 0 012.53-7.97l2.071 1.388a16.483 16.483 0 00-.847 6.635l.036.461h1.624a2.88 2.88 0 012.88 2.88zM46.123 44.999h0l-3.34-10.846s0 0 0 0A50.062 50.062 0 0140.57 19.43a6.258 6.258 0 016.259-6.259h1.69a6.259 6.259 0 016.258 6.259v25.153A3.916 3.916 0 0150.86 48.5a4.96 4.96 0 01-4.737-3.501z"/><path d="M51.648 33.11h0l-.002-.012a80.72 80.72 0 01-.94-12.275v-3.082a4.57 4.57 0 014.57-4.569h8.448a4.57 4.57 0 014.57 4.57v3.081s0 0 0 0a80.731 80.731 0 01-.942 12.268l-2.089 11.415-.001.007-.001.007a4.569 4.569 0 01-4.516 3.874h0-3.127 0a4.569 4.569 0 01-4.515-3.868l-1.455-11.415z" fill="#fff"/></g><g clip-path="url(#clip1)" stroke="#000"><path d="M114.877 44.999h0a4.96 4.96 0 01-4.737 3.501 3.916 3.916 0 01-3.916-3.916V19.431a6.259 6.259 0 016.259-6.259h1.689a6.259 6.259 0 016.259 6.259c0 4.99-.747 9.952-2.214 14.722L114.877 45zm-7.118-32.327v1.19H96.086v-1.19a2.88 2.88 0 012.88-2.879h.513l-.014-.514a12.724 12.724 0 012.531-7.97l2.07 1.388a16.49 16.49 0 00-.847 6.635l.036.461h1.624a2.88 2.88 0 012.88 2.88zM88.123 44.999h0l-3.34-10.846s0 0 0 0A50.062 50.062 0 0182.57 19.43a6.258 6.258 0 016.259-6.259h1.69a6.259 6.259 0 016.258 6.259v25.153A3.916 3.916 0 0192.86 48.5a4.96 4.96 0 01-4.737-3.501z"/><path d="M93.647 33.11h0l-.001-.012a80.732 80.732 0 01-.94-12.275v-3.082a4.57 4.57 0 014.57-4.569h8.448a4.57 4.57 0 014.569 4.57v3.081s0 0 0 0a80.744 80.744 0 01-.941 12.268l-2.089 11.415-.001.007-.001.007a4.569 4.569 0 01-4.516 3.874h0-3.127 0a4.569 4.569 0 01-4.515-3.868l-1.456-11.415z" fill="#fff"/></g><defs><clipPath id="clip0"><path fill="#fff" d="M35 0h49v49H35z"/></clipPath><clipPath id="clip1"><path fill="#fff" d="M77 0h49v49H77z"/></clipPath></defs></svg>