<svg width="119" height="35" fill="none" xmlns="http://www.w3.org/2000/svg"><path d="M18.3 21.025l-3.532 5.73a135.257 135.257 0 00-4.201-.668c-.645-.081-1.307-.169-1.987-.263a86.772 86.772 0 01-2.197-.334c-.305-.058-.61-.1-.914-.123a7.51 7.51 0 00-.897-.053c-.644 0-1.265.088-1.863.264a5.934 5.934 0 00-1.688.826l-.544-.58a3.06 3.06 0 00.632-.756c.176-.293.323-.603.44-.931a5.7 5.7 0 00.37-1.986V11.778c-.001-1.64.286-3.17.86-4.588.575-1.418 1.366-2.648 2.373-3.691A11.107 11.107 0 018.738 1.02c1.383-.609 2.877-.914 4.483-.914.515 0 1.013.059 1.494.176.48.117.902.305 1.265.563.375.258.674.592.897 1.002.223.41.334.914.334 1.511 0 .528-.1 1.037-.299 1.53-.2.492-.474.96-.826 1.406a7.97 7.97 0 01-1.195 1.248c-.446.375-.914.715-1.407 1.02-.492.304-.996.562-1.511.773a11.36 11.36 0 01-1.46.492l-.28-.668a15.92 15.92 0 001.23-.808A8.163 8.163 0 0012.64 7.35c.351-.375.638-.78.861-1.213.223-.446.334-.926.334-1.442 0-.41-.076-.785-.229-1.125a2.592 2.592 0 00-.632-.896 2.83 2.83 0 00-.915-.58 2.876 2.876 0 00-1.107-.211c-.879 0-1.652.187-2.32.562a5.375 5.375 0 00-1.688 1.477c-.457.61-.802 1.3-1.037 2.074a8.08 8.08 0 00-.351 2.356v11.32c0 .445-.065.879-.194 1.3-.129.41-.304.81-.527 1.196a6.595 6.595 0 01-.756 1.072c-.293.34-.603.65-.932.932.375-.27.739-.516 1.09-.738a7.496 7.496 0 011.073-.598 5.812 5.812 0 011.16-.37 5.8 5.8 0 011.318-.14c.586 0 1.107.03 1.565.088.457.059.902.123 1.336.193.445.059.896.118 1.353.176.457.059.979.088 1.564.088.41 0 .803-.058 1.178-.176.387-.129.75-.299 1.09-.51.34-.21.656-.45.95-.72.304-.281.58-.58.825-.897l.65.457zm7.77 5.38a6.517 6.517 0 01-2.443-.458 6.265 6.265 0 01-1.969-1.3 6.359 6.359 0 01-1.318-1.934 6.222 6.222 0 01-.475-2.444c0-.996.164-1.927.492-2.794.329-.88.78-1.67 1.354-2.373a9.314 9.314 0 012.057-1.829 10.65 10.65 0 012.584-1.213l.51.616a9.881 9.881 0 00-1.477 1.336 9.013 9.013 0 00-1.196 1.617 8.507 8.507 0 00-.808 1.828 6.457 6.457 0 00-.299 1.951c0 .563.082 1.154.246 1.776.164.62.41 1.189.738 1.705.329.515.739.943 1.23 1.283.505.328 1.085.492 1.741.492.586 0 1.09-.105 1.512-.316a2.985 2.985 0 001.072-.862c.281-.363.492-.785.633-1.265a5.483 5.483 0 00-.158-3.48 6.93 6.93 0 00-1.02-1.846 5.87 5.87 0 00-1.494-1.407 3.98 3.98 0 00-1.846-.65c.41-.469.862-.902 1.354-1.3.492-.4.99-.78 1.494-1.143.68.222 1.277.55 1.793.984.527.434.967.931 1.318 1.494.364.563.639 1.178.827 1.846a7.26 7.26 0 01.28 2.004c0 .925-.163 1.845-.492 2.76a8.136 8.136 0 01-1.37 2.478 7.086 7.086 0 01-2.128 1.775c-.82.446-1.734.668-2.742.668zm20.865-1.706c0 .692-.093 1.395-.28 2.11a10.433 10.433 0 01-.81 2.127c-.34.691-.75 1.341-1.23 1.95a8.799 8.799 0 01-1.617 1.618 7.572 7.572 0 01-1.916 1.09c-.68.27-1.389.404-2.127.404-.469 0-.92-.076-1.353-.228a3.194 3.194 0 01-1.143-.721l2.32-2.197c.246.328.533.591.862.79.328.2.697.3 1.107.3.598 0 1.084-.118 1.459-.352.375-.223.674-.527.896-.914a3.99 3.99 0 00.475-1.301c.094-.48.152-.979.176-1.494.023-.516.023-1.02 0-1.512a56.7 56.7 0 01-.018-1.336v-2.021c-.21.398-.45.797-.72 1.195a5.652 5.652 0 01-.897 1.072 4.277 4.277 0 01-1.107.774c-.41.199-.867.299-1.371.299-.762 0-1.436-.147-2.022-.44a4.412 4.412 0 01-1.476-1.178 5.194 5.194 0 01-.897-1.757 7.406 7.406 0 01-.299-2.127c0-.68.082-1.366.246-2.057.164-.703.393-1.377.686-2.021a9.859 9.859 0 011.107-1.811 8.27 8.27 0 011.477-1.459 6.623 6.623 0 011.81-.984 5.909 5.909 0 012.092-.37c.445 0 .89.053 1.336.159.446.105.867.27 1.266.492.41.21.78.474 1.107.79.34.317.616.686.826 1.108l-2.619 1.108a6.08 6.08 0 00-.492-.668 3.822 3.822 0 00-.598-.633 2.79 2.79 0 00-.703-.457 1.778 1.778 0 00-.773-.176c-.399 0-.774.094-1.125.281-.34.188-.656.434-.95.739a5.507 5.507 0 00-.755 1.054c-.223.387-.41.791-.563 1.213-.152.422-.27.838-.351 1.248-.07.41-.106.78-.106 1.108 0 .445.041.949.123 1.511.094.551.252 1.073.475 1.565.222.492.515.908.879 1.248.363.34.82.51 1.37.51.434 0 .81-.094 1.126-.282.316-.199.586-.45.809-.755.222-.317.404-.674.544-1.073.153-.41.264-.826.334-1.248.082-.422.135-.838.159-1.248.035-.422.052-.797.052-1.125v-1.213l3.2-1.125v8.42zm9.124 1.705a6.518 6.518 0 01-2.444-.457 6.264 6.264 0 01-1.968-1.3 6.357 6.357 0 01-1.319-1.934 6.222 6.222 0 01-.475-2.444c0-.996.165-1.927.493-2.794.328-.88.779-1.67 1.353-2.373a9.314 9.314 0 012.057-1.829c.797-.515 1.658-.92 2.584-1.213l.51.616a9.887 9.887 0 00-1.477 1.336 9.023 9.023 0 00-1.195 1.617 8.517 8.517 0 00-.809 1.828 6.46 6.46 0 00-.299 1.951c0 .563.082 1.154.246 1.776.164.62.41 1.189.739 1.705.328.515.738.943 1.23 1.283.504.328 1.084.492 1.74.492.586 0 1.09-.105 1.512-.316a2.985 2.985 0 001.072-.862 3.75 3.75 0 00.633-1.265 5.483 5.483 0 00-.158-3.48 6.933 6.933 0 00-1.02-1.846 5.87 5.87 0 00-1.494-1.407 3.98 3.98 0 00-1.845-.65c.41-.469.86-.902 1.353-1.3.492-.4.99-.78 1.494-1.143.68.222 1.278.55 1.793.984.528.434.967.931 1.319 1.494.363.563.638 1.178.826 1.846a7.26 7.26 0 01.281 2.004 8.13 8.13 0 01-.492 2.76 8.134 8.134 0 01-1.371 2.478 7.084 7.084 0 01-2.127 1.775c-.82.446-1.735.668-2.742.668zm16.084-2.46c-.27.574-.58 1.013-.932 1.318a3.863 3.863 0 01-1.037.668 3.558 3.558 0 01-1.196.28c-.527 0-.96-.081-1.3-.245a2.17 2.17 0 01-.791-.65 2.691 2.691 0 01-.405-.915 5.107 5.107 0 01-.105-1.037v-9.21h-1.863l.755-1.758h1.108V6.172l3.217-1.125v7.348h3.34l-.721 1.757h-2.62v9.3c0 .28.065.503.194.667a.652.652 0 00.492.264c.2 0 .422-.076.668-.229.246-.152.487-.398.721-.738l.475.527zm14.642.615c0 .843-.105 1.664-.316 2.46a10.354 10.354 0 01-.88 2.268 9.755 9.755 0 01-1.3 1.951 8.804 8.804 0 01-1.652 1.53 7.18 7.18 0 01-1.864 1.002 5.618 5.618 0 01-1.986.369c-.504 0-.978-.088-1.424-.264a5.461 5.461 0 01-1.265-.668l1.968-2.496c.176.14.37.287.58.44.223.152.452.287.686.404.234.129.475.228.72.299.258.082.51.123.757.123.445 0 .82-.135 1.125-.405.316-.27.574-.615.773-1.037.2-.422.358-.902.475-1.441.117-.528.199-1.055.246-1.582.058-.528.094-1.032.105-1.512.012-.469.018-.855.018-1.16v-7.084c-.094.41-.217.908-.37 1.494a21.531 21.531 0 01-.58 1.828c-.222.633-.48 1.266-.773 1.899a9.863 9.863 0 01-1.002 1.687 5.11 5.11 0 01-1.23 1.23 2.53 2.53 0 01-1.46.458c-.538 0-.948-.118-1.23-.352a2.22 2.22 0 01-.597-.914 4.512 4.512 0 01-.194-1.23 48.914 48.914 0 01-.017-1.284V14.98c0-.211-.059-.416-.176-.616a.582.582 0 00-.545-.316c-.293 0-.563.111-.809.334-.234.21-.421.422-.562.633l-.475-.528a4.6 4.6 0 01.528-.843c.222-.282.468-.528.738-.739.281-.21.58-.375.896-.492a2.764 2.764 0 011.02-.193c.914 0 1.57.258 1.969.773.41.504.615 1.19.615 2.057v7.523c.012.106.035.211.07.317a.877.877 0 00.158.263.38.38 0 00.282.106c.222 0 .45-.13.685-.387.235-.258.457-.556.668-.896.211-.34.393-.68.545-1.02.152-.34.264-.592.334-.756.211-.504.398-1.055.563-1.652.164-.598.304-1.207.421-1.828a28.16 28.16 0 00.317-1.864c.094-.62.164-1.212.21-1.775l3.235-1.125V24.56zm10.67 1.757c-.41 0-.803-.058-1.178-.175a3.022 3.022 0 01-1.054-.545l1.37-1.969c.223.305.481.545.774.72a2.08 2.08 0 001.002.247c.375 0 .697-.094.967-.282.27-.199.492-.457.668-.773a4.78 4.78 0 00.457-1.055c.117-.398.205-.797.264-1.195a14.652 14.652 0 00.158-2.092c0-.492-.071-1.025-.211-1.6a6.003 6.003 0 00-.615-1.617 3.778 3.778 0 00-1.055-1.248c-.434-.34-.95-.51-1.547-.51-.41 0-.762.106-1.055.317a2.55 2.55 0 00-.72.809c-.188.328-.34.709-.457 1.142a11.8 11.8 0 00-.246 1.283c-.047.422-.077.838-.088 1.248a35.98 35.98 0 00-.018 1.038v13.5l-3.2 1.125v-19.74a1.17 1.17 0 00-.175-.634c-.117-.199-.299-.298-.545-.298-.293 0-.562.111-.808.334-.235.21-.422.422-.563.633l-.474-.528a4.48 4.48 0 011.265-1.582c.281-.21.58-.375.897-.492a2.762 2.762 0 011.02-.193c.503 0 .919.076 1.247.228.328.14.592.346.791.615.2.27.34.592.422.967.082.375.123.791.123 1.248.188-.363.404-.726.65-1.09.258-.375.545-.703.862-.984a4.053 4.053 0 011.037-.703 2.862 2.862 0 011.266-.281c.808 0 1.523.181 2.144.545.633.351 1.16.82 1.582 1.406a6.22 6.22 0 01.984 1.95c.223.727.334 1.466.334 2.216 0 .926-.134 1.863-.404 2.812-.258.95-.65 1.81-1.178 2.584a6.41 6.41 0 01-1.951 1.899c-.785.48-1.699.72-2.742.72zm21.076-3.744c-.41.528-.861 1.02-1.353 1.477a8.785 8.785 0 01-1.582 1.195c-.563.34-1.16.61-1.793.809a6.525 6.525 0 01-1.969.299 6.125 6.125 0 01-2.391-.457 5.902 5.902 0 01-1.881-1.284 5.928 5.928 0 01-1.23-1.933 6.559 6.559 0 01-.439-2.409c0-.703.099-1.394.298-2.074.2-.68.481-1.318.844-1.916a9.18 9.18 0 011.283-1.652 8.416 8.416 0 011.653-1.318 8.081 8.081 0 011.898-.844 6.794 6.794 0 012.057-.317c.492 0 .955.059 1.388.176.446.117.838.305 1.178.563.34.246.61.568.809.966.199.387.299.85.299 1.39 0 .444-.135.913-.405 1.405a7.506 7.506 0 01-1.037 1.477c-.422.492-.902.979-1.441 1.459-.539.469-1.09.908-1.653 1.318-.55.399-1.084.75-1.599 1.055a11.8 11.8 0 01-1.354.703c.434.54.938.979 1.512 1.319.574.34 1.184.51 1.828.51.41 0 .826-.077 1.248-.23a6.873 6.873 0 001.213-.614 9.692 9.692 0 001.125-.81c.363-.292.686-.567.967-.825l.527.562zm-4.236-6.68c0-.269-.047-.527-.141-.773a1.703 1.703 0 00-.369-.633 1.722 1.722 0 00-.597-.44 1.64 1.64 0 00-.774-.175c-.527 0-1.014.188-1.459.563a5.247 5.247 0 00-1.16 1.353 8.137 8.137 0 00-.756 1.723c-.176.597-.264 1.125-.264 1.582 0 .445.071.902.211 1.37.141.47.334.92.58 1.354a9.987 9.987 0 001.53-1.072 13.23 13.23 0 001.529-1.494c.48-.55.879-1.12 1.195-1.705.317-.586.475-1.137.475-1.652z" fill="#000"/></svg>