<svg width="42" height="42" fill="none" xmlns="http://www.w3.org/2000/svg"><path d="M28.406 42a4.68 4.68 0 004.47-3.303l2.862-9.297a43.341 43.341 0 001.917-12.745c0-3.2-2.593-5.793-5.793-5.793h-1.448a5.793 5.793 0 00-5.793 5.793v21.56A3.785 3.785 0 0028.406 42z" fill="#D43D3D"/><path d="M23.715 2.142a13.702 13.702 0 00-.814 5.824h.995c1.6 0 2.897 1.297 2.897 2.896v1.448H15.931v-1.448c0-1.6 1.297-2.896 2.897-2.896A11.336 11.336 0 0121.332.543l2.383 1.6z" fill="#5F9548"/><path d="M13.594 42a4.68 4.68 0 01-4.47-3.303L6.262 29.4a43.34 43.34 0 01-1.917-12.745c0-3.2 2.593-5.793 5.793-5.793h1.448c3.2 0 5.793 2.594 5.793 5.793v21.56A3.785 3.785 0 0113.594 42z" fill="#D43D3D"/><path d="M13.034 15.207v2.642c0 3.544.271 7.083.81 10.586l1.248 9.79a4.345 4.345 0 004.295 3.684h2.68a4.345 4.345 0 004.294-3.684l1.792-9.79c.54-3.503.812-7.042.813-10.586v-2.642c0-2.4-1.946-4.345-4.345-4.345h-7.242a4.345 4.345 0 00-4.345 4.345z" fill="#E94F4F"/><path d="M14.799 35.917l.293 2.31a4.345 4.345 0 004.295 3.684h2.68a4.344 4.344 0 004.294-3.684l1.792-9.79c.54-3.502.811-7.039.813-10.581a30.703 30.703 0 01-14.168 18.061z" fill="#E04646"/><path d="M15.207 17.38h1.448v1.538h-1.448V17.38zm.869 11.462l-.405-2.836a39.77 39.77 0 01-.464-5.585l1.448-.016c.02 1.805.168 3.607.442 5.391l.408 2.843-1.429.203z" fill="#F26666"/><path d="M23.897 1.448a1.448 1.448 0 11-2.897 0 1.448 1.448 0 012.897 0z" fill="#77AD50"/></svg>