<svg width="30" height="30" fill="none" xmlns="http://www.w3.org/2000/svg"><path d="M0 9.375v11.25A9.376 9.376 0 009.375 30h11.25A9.376 9.376 0 0030 20.625V9.375A9.376 9.376 0 0020.625 0H9.375A9.376 9.376 0 000 9.375zm20.625-6.563a6.57 6.57 0 016.563 6.563v11.25a6.57 6.57 0 01-6.563 6.563H9.375a6.57 6.57 0 01-6.563-6.563V9.375a6.57 6.57 0 016.563-6.563h11.25z" fill="#000"/><path d="M7.5 15a7.5 7.5 0 1015 0 7.5 7.5 0 00-15 0zm12.188 0A4.694 4.694 0 0115 19.688 4.693 4.693 0 0110.312 15 4.693 4.693 0 0115 10.312 4.694 4.694 0 0119.688 15zM7.937 6.937a1 1 0 10-1.999 0 1 1 0 001.999 0z" fill="#000"/></svg>