<svg width="21" height="25" viewBox="0 0 21 25" fill="none" xmlns="http://www.w3.org/2000/svg">
<path d="M17.7169 16.333L16.2497 15.9022L13.0575 13.8172V13.3394C13.9817 12.6423 14.6164 11.5767 14.7344 10.3553C15.1979 10.2807 15.553 9.87789 15.553 9.39371V8.07999C15.553 8.07491 15.5525 8.06993 15.5522 8.06486V6.4007C15.7369 6.26847 15.8541 6.05309 15.8541 5.81149V4.28854L18.0571 3.91329C18.4191 3.85162 18.6795 3.56407 18.7051 3.19772C18.7305 2.83136 18.5126 2.51046 18.1627 2.39918L10.7361 0.0369751C10.5811 -0.0123413 10.4174 -0.0122925 10.2625 0.0369263L2.83582 2.39918C2.48586 2.51046 2.2679 2.83136 2.29343 3.19767C2.30964 3.43043 2.42087 3.63112 2.59255 3.76256V5.75411H2.57439C2.15618 5.75411 1.81594 6.09435 1.81594 6.51256V7.50113L1.32634 10.3748C1.24172 10.8718 1.62454 11.3267 2.12991 11.3267H3.78757C4.29182 11.3267 4.67595 10.8729 4.59114 10.3747L4.10154 7.50113V6.51256C4.10154 6.09435 3.7613 5.75411 3.34309 5.75411H3.32498V3.97858L5.14597 4.28873V5.81149C5.14597 6.05206 5.26262 6.2671 5.44641 6.39952L5.4471 8.08014V9.39371C5.4471 9.87794 5.80222 10.2807 6.26575 10.3553C6.38367 11.576 7.01765 12.6411 7.94099 13.3383V13.8183L4.74949 15.9029L3.28342 16.3332C1.71462 16.7937 0.606909 18.2339 0.606909 19.9082V20.9996C0.606909 21.2018 0.770825 21.3658 0.97312 21.3658C1.17542 21.3658 1.33933 21.2019 1.33933 20.9996V19.9082C1.33933 18.5886 2.22356 17.4075 3.48972 17.0359L4.85574 16.635L10.3131 19.8778C10.4239 19.9436 10.5704 19.9471 10.6872 19.8778L16.1449 16.6348L17.5107 17.0358C18.7767 17.4074 19.6609 18.5885 19.6609 19.9079V23.4449C19.6609 23.8986 19.2918 24.2677 18.8382 24.2677H17.2241V22.6892C17.2241 22.4869 17.0601 22.323 16.8578 22.323C16.6556 22.323 16.4916 22.4869 16.4916 22.6892V24.2677H4.50686V22.6892C4.50686 22.4869 4.34294 22.323 4.14065 22.323C3.93835 22.323 3.77444 22.4869 3.77444 22.6892V24.2677H2.16199C1.70833 24.2677 1.33923 23.8986 1.33923 23.4449V22.7114C1.33923 22.5092 1.17532 22.3452 0.973023 22.3452C0.770728 22.3452 0.606812 22.5091 0.606812 22.7114V23.4449C0.606812 24.3024 1.30442 25 2.16194 25H18.8381C19.6956 25 20.3932 24.3024 20.3932 23.4449V19.9079C20.3932 18.2731 19.3233 16.8046 17.7169 16.333ZM3.78752 10.5943H2.12991C2.07869 10.5943 2.03962 10.5485 2.04832 10.4977L2.49119 7.8983H3.42625L3.86912 10.4977C3.87776 10.5484 3.83899 10.5943 3.78752 10.5943ZM3.36912 6.51256V7.16593H2.54827V6.51256C2.54827 6.49816 2.55994 6.48649 2.57434 6.48649H3.34299C3.35745 6.48644 3.36912 6.49816 3.36912 6.51256ZM9.19031 18.2213L9.33606 18.4453L5.59734 16.2237L7.97044 14.6737C8.07805 15.9364 8.49426 17.1515 9.19031 18.2213ZM9.18777 16.6404C10.0497 16.7629 10.9498 16.763 11.8123 16.6404C11.6456 17.0505 11.4403 17.4462 11.1959 17.8219L10.5 18.8914L9.80418 17.8219C9.55979 17.4462 9.35442 17.0505 9.18777 16.6404ZM11.8097 18.2213C12.5058 17.1515 12.922 15.9364 13.0296 14.6737L15.4027 16.2237L11.664 18.4453L11.8097 18.2213ZM13.9519 6.53707H14.8199V7.71373H14.389C14.148 7.71373 13.9518 7.51764 13.9518 7.27657V6.53707H13.9519ZM3.05779 3.09713L10.4846 0.734827C10.4941 0.731799 10.5044 0.73175 10.514 0.734876L17.9408 3.09713C17.9561 3.10201 17.9772 3.10865 17.9745 3.14679C17.9718 3.18488 17.9501 3.18854 17.9342 3.19127L15.4787 3.60948L14.5568 3.49547C14.3562 3.47062 14.1733 3.61329 14.1485 3.81398C14.1237 4.01471 14.2663 4.19752 14.467 4.22233L15.1218 4.30333V5.8047L5.87835 5.80436V4.30328L9.66775 3.83439C10.2197 3.76617 10.7793 3.76617 11.3308 3.83439L12.7651 4.01178C12.9657 4.03663 13.1486 3.89401 13.1735 3.69332C13.1983 3.49259 13.0557 3.30978 12.855 3.28492L11.4208 3.10753C10.8096 3.0319 10.1895 3.0319 9.57786 3.10753L5.52053 3.60958L3.06433 3.19127C3.04841 3.18854 3.02668 3.18488 3.024 3.14679C3.02136 3.10865 3.04241 3.10197 3.05779 3.09713ZM6.17927 7.71373L6.17879 6.53707H7.04817V7.27662C7.04817 7.51764 6.85208 7.71378 6.61096 7.71378H6.17927V7.71373ZM6.98528 10.1671C6.96643 9.86886 6.71858 9.63527 6.42107 9.63527C6.28782 9.63527 6.17942 9.52687 6.17942 9.39366V8.44615H6.61096C7.25584 8.44615 7.78054 7.9215 7.78054 7.27662V6.53707H13.2195V7.27662C13.2195 7.9215 13.7442 8.44615 14.389 8.44615H14.8206V9.39366C14.8206 9.52687 14.7122 9.63527 14.5789 9.63527C14.2814 9.63527 14.0336 9.86886 14.0147 10.1671C13.8981 12.0162 12.3542 13.4647 10.5 13.4647C8.64573 13.4647 7.10193 12.0162 6.98528 10.1671ZM10.5 14.197C11.1513 14.197 11.7704 14.0481 12.3251 13.7833V14.0154C12.3251 14.6415 12.2407 15.2591 12.078 15.8548C11.0828 16.0446 9.95764 16.0523 8.92205 15.8548C8.7594 15.2592 8.67493 14.6416 8.67493 14.0154C8.67493 14.0076 8.67385 14.0001 8.67337 13.9924C8.67327 13.9909 8.67341 13.9894 8.67332 13.9879V13.7826C9.22844 14.0478 9.84807 14.197 10.5 14.197Z" fill="black"/>
</svg>
